<svg data-v-0dd9719b="" version="1.0" xmlns="http://www.w3.org/2000/svg" xmlns:xlink="http://www.w3.org/1999/xlink" width="100%" height="100%" viewBox="0 0 340.000000 250.000000" preserveAspectRatio="xMidYMid meet" color-interpolation-filters="sRGB" style="margin: auto;"> <rect data-v-0dd9719b="" x="0" y="0" width="100%" height="100%" fill="#fff" fill-opacity="1" class="background"></rect> <rect data-v-0dd9719b="" x="0" y="0" width="100%" height="100%" fill="url(#watermark)" fill-opacity="1" class="watermarklayer"></rect> <g data-v-0dd9719b="" fill="#00a5a9" class="icon-text-wrapper icon-svg-group iconsvg" transform="translate(47.08500671386719,96.98356437683105)"><g class="iconsvg-imagesvg" transform="translate(0,0)"><g><rect fill="#00a5a9" fill-opacity="0" stroke-width="2" x="0" y="0" width="60" height="56.032872618602916" class="image-rect"></rect> <svg x="0" y="0" width="60" height="56.032872618602916" filtersec="colorsb7664592319" class="image-svg-svg primary" style="overflow: visible;"><svg xmlns="http://www.w3.org/2000/svg" viewBox="13.677627563476562 89.5285873413086 1476.3446044921875 1378.7261962890625"><g fill-rule="evenodd" clip-rule="evenodd"><path fill="#F08D00" d="M358.406 181.943C550.705 70.924 774.3 63.149 965.028 141.368l-57.756 33.342c-167.65-56.601-357.884-43.599-523.129 51.804-305.012 176.1-409.561 566.267-233.459 871.279 176.096 305.007 566.264 409.55 871.276 233.453 185.105-106.868 296.369-292.59 315.869-490.267l53.858-31.089c-10.432 226.913-132.717 443.941-343.995 565.929-329.625 190.309-751.274 77.33-941.577-252.3-190.313-329.618-77.328-751.268 252.291-941.576zm699.421 5.909l-51.649 29.82a637.01 637.01 0 0 1 84.719 54.722l47.961-27.691a686.894 686.894 0 0 0-81.031-56.851zm147.339 118.633l-45.885 26.491c21.022 21.533 40.692 44.789 58.827 69.669l44.813-25.873a687.636 687.636 0 0 0-57.755-70.287zm103.789 143.775l-44.605 25.751a639.248 639.248 0 0 1 37.178 82.169l45.185-26.085a690.8 690.8 0 0 0-37.758-81.835zm64.195 166.634l-46.629 26.921a633.982 633.982 0 0 1 13.22 95.999l49.409-28.525a685.037 685.037 0 0 0-16-94.395z"></path><path fill="#00A5A9" d="M413.555 277.454c69.461-40.106 143.791-64.161 218.694-73.335-29.125 38.673-53.036 80.618-71.49 124.693L169.17 554.897c47.212-112.791 130.338-211.603 244.385-277.443zm630.931-181.966L540.023 386.74 230.588 565.392l-82.155 47.433c-16.611 55.521-24.915 113.473-24.395 171.828l391.585-226.088a581.895 581.895 0 0 1 2.5-59.114L1153.08 132.86a582.853 582.853 0 0 0-108.594-37.372zm198.664 89.001L517.768 603.288 318.795 718.167 126.178 829.375a574.869 574.869 0 0 0 30.16 140.325l391.59-226.085a575.151 575.151 0 0 1-14.774-49.142l781.316-451.095a576.018 576.018 0 0 0-71.32-58.889zm131.619 127.706L562.554 781.127l-155.556 89.811-236.034 136.274a581.113 581.113 0 0 0 30.659 61.169c11.552 20.015 24.156 39.053 37.64 57.135l391.596-226.085a589.923 589.923 0 0 1-28.212-41.383l818.67-472.66c-2.883-5.38-1.587-3.39-8.903-16.059-7.316-12.669-24.156-39.047-37.645-57.134zm82.93 155.819l-801.665 462.84-160.828 92.858-230.763 133.228a574.66 574.66 0 0 0 106.449 96.282l391.59-226.085a576.151 576.151 0 0 1-42.758-32.99l760.946-439.333a574.74 574.74 0 0 0-22.971-86.8zm32.3 185.047a580.476 580.476 0 0 1-8.638 105.055l-585.923 338.286a584.178 584.178 0 0 0 65.703 19.738l-391.59 226.085c-56.381-13.378-110.733-35.155-160.998-64.789l174.854-100.954 216.736-125.131 689.856-398.29zm-324.587 474.515c-45.396 60.283-103.396 112.623-172.863 152.732-114.035 65.835-241.178 88.43-362.46 72.923l391.591-226.085c47.397 6.062 95.681 6.323 143.732.43z"></path></g></svg></svg> <!----></g></g> <g transform="translate(67,16.411436080932617)"><g data-gra="path-name" fill-rule="" class="tp-name iconsvg-namesvg"><g transform="scale(1)"><g><path d="M12.41-23.07L12.41-23.07Q15.85-23.07 18.46-21.9L18.46-21.9Q21.52-20.49 22.76-17.19L22.76-17.19Q23.72-14.61 23.72-11.14L23.72-11.14Q23.72-7.63 22.55-5.05L22.55-5.05Q21.07-1.99 18.01-0.76L18.01-0.76Q15.74 0.14 12.79 0.14L12.79 0.14Q8.9 0.14 6.05-1.31L6.05-1.31Q3.64-2.51 2.37-5.09 1.1-7.67 1.1-11.34L1.1-11.34Q1.1-17.91 4.37-20.7L4.37-20.7Q7.12-23.03 12.41-23.07ZM12.44-19.22L12.44-19.22Q9.08-19.22 7.63-17.02L7.63-17.02Q6.46-15.3 6.46-11.48L6.46-11.48Q6.46-7.46 7.91-5.57L7.91-5.57Q9.35-3.71 12.48-3.71L12.48-3.71Q15.5-3.71 16.93-5.6 18.36-7.49 18.36-11.45L18.36-11.45Q18.36-15.06 17.19-16.95L17.19-16.95Q15.85-19.18 12.44-19.22ZM35.96-8.7L32.04-8.7 32.04 0 27.16 0 27.16-22.93 38.37-22.93Q43.18-22.93 45.07-21.69L45.07-21.69Q46.38-20.87 47.08-19.51 47.78-18.15 47.78-16.54L47.78-16.54Q47.78-13.27 46.13-11.48L46.13-11.48Q45.1-10.42 43.42-9.87L43.42-9.87Q44.76-9.39 45.45-8.85 46.13-8.32 46.68-7.29L46.68-7.29Q47.1-6.46 47.29-5.71 47.48-4.95 47.58-3.47L47.58-3.47Q47.78-1 48.13 0L48.13 0 42.66 0Q42.42-0.79 42.15-3.27L42.15-3.27Q41.97-5.26 41.44-6.33 40.91-7.39 39.84-8.01L39.84-8.01Q38.5-8.73 35.96-8.7L35.96-8.7ZM32.04-18.84L32.04-12.79 38.88-12.79Q40.6-12.79 41.32-13.3L41.32-13.3Q42.42-14.06 42.42-15.95L42.42-15.95Q42.42-18.05 40.77-18.63L40.77-18.63Q40.19-18.84 38.88-18.84L38.88-18.84 32.04-18.84ZM51.7 0L51.7-22.93 61.43-22.93Q65.08-22.93 67.07-22.21L67.07-22.21Q70.75-20.87 71.99-17.29L71.99-17.29Q72.91-14.54 72.91-11.41L72.91-11.41Q72.91-8.32 72.02-5.57L72.02-5.57Q71.13-2.75 69.06-1.41L69.06-1.41Q67.76-0.58 66.19-0.29 64.63 0 61.43 0L61.43 0 51.7 0ZM61.43-18.84L56.59-18.84 56.59-4.09 61.43-4.09Q64.63-4.09 65.87-5.5L65.87-5.5Q66.62-6.39 67.09-8.01 67.55-9.63 67.55-11.45L67.55-11.45Q67.55-13.48 67-15.16 66.45-16.84 65.56-17.67L65.56-17.67Q64.25-18.84 61.43-18.84L61.43-18.84ZM81.2 0L76.32 0 76.32-22.93 81.2-22.93 81.2 0ZM99.87 0L90.52-16.81 90.52 0 85.84 0 85.84-22.93 92.1-22.93 101.21-5.84 101.21-22.93 105.85-22.93 105.85 0 99.87 0ZM114 0L108.29 0 117.78-22.93 123.38-22.93 132.87 0 127.16 0 124.93-5.29 116.23-5.29 114 0ZM123.86-9.39L120.6-17.39 117.33-9.39 123.86-9.39ZM144.14-8.7L140.23-8.7 140.23 0 135.34 0 135.34-22.93 146.55-22.93Q151.36-22.93 153.25-21.69L153.25-21.69Q154.56-20.87 155.27-19.51 155.97-18.15 155.97-16.54L155.97-16.54Q155.97-13.27 154.32-11.48L154.32-11.48Q153.29-10.42 151.6-9.87L151.6-9.87Q152.94-9.39 153.63-8.85 154.32-8.32 154.87-7.29L154.87-7.29Q155.28-6.46 155.47-5.71 155.66-4.95 155.76-3.47L155.76-3.47Q155.97-1 156.31 0L156.31 0 150.85 0Q150.61-0.79 150.33-3.27L150.33-3.27Q150.16-5.26 149.63-6.33 149.09-7.39 148.03-8.01L148.03-8.01Q146.69-8.73 144.14-8.7L144.14-8.7ZM140.23-18.84L140.23-12.79 147.07-12.79Q148.79-12.79 149.51-13.3L149.51-13.3Q150.61-14.06 150.61-15.95L150.61-15.95Q150.61-18.05 148.96-18.63L148.96-18.63Q148.37-18.84 147.07-18.84L147.07-18.84 140.23-18.84ZM166.11 0L166.11-10.04 157.62-22.93 163.33-22.93 168.59-13.96 174.12-22.93 179.93-22.93 170.99-9.87 170.99 0 166.11 0Z" transform="translate(-1.100000023841858, 23.06999969482422)"></path></g> <!----> <!----> <!----> <!----> <!----> <!----> <!----></g></g> <!----></g></g><defs v-gra="od"></defs></svg>